<?xml version="1.0"?>
<svg width="64" height="64" xmlns="http://www.w3.org/2000/svg" xmlns:svg="http://www.w3.org/2000/svg">
 <g class="layer">
  <title>Layer 1</title>
  <path d="m22.61,21.39c-0.39,-0.39 -1.03,-0.39 -1.42,0c-0.39,0.39 -0.39,1.03 0,1.42l1.42,-1.42zm18.38,21.22c0.39,0.39 1.03,0.39 1.42,0c0.39,-0.39 0.39,-1.03 0,-1.42l-1.42,1.42zm-19.8,-1.42c-0.39,0.39 -0.39,1.03 0,1.42c0.39,0.39 1.03,0.39 1.42,0l-1.42,-1.42zm21.22,-18.38c0.39,-0.39 0.39,-1.03 0,-1.42c-0.39,-0.39 -1.03,-0.39 -1.42,0l1.42,1.42zm-21.22,0l19.8,19.8l1.42,-1.42l-19.8,-19.8l-1.42,1.42zm1.42,19.8l19.8,-19.8l-1.42,-1.42l-19.8,19.8l1.42,1.42z" fill="#ffffff" id="svg_1"/>
 </g>
</svg>